# xmcd CD database file
# Copyright (C) 1993-1998 Ti Kan
#
# Track frame offsets:
#  212
#  11372
#  24235
#  32940
#  43802
#  53345
#  63977
#  75950
#  86432
#  98027
#  108600
#  117585
#  127795
#  139260
#  152405
#  165422
#  175915
#  187210
#  197795
#  207535
#
# Disc length: 2911 seconds
#
# Revision: 1
# Processed by: cddbd v1.4b41PL1 Copyright (c) Steve Scherf et al.
# Submitted via: CDWizzard Release:4.35
#
DISCID=020b5d14
DTITLE=Heartbeats - For Collectors Only - The Heartbeats/Shep And The Lim
DTITLE=elights  Disc 1
DYEAR=1900
DGENRE=
TTITLE0=A Thousand Miles Away
TTITLE1=People Are Talking
TTITLE2=Down On My Knees
TTITLE3=It's Allright With Me
TTITLE4=I Want To Know
TTITLE5=Hands Off My Baby
TTITLE6=Your Way
TTITLE7=I Won't Be The Fool Anymore
TTITLE8=Darling How Long
TTITLE9=Lovin' Sickness
TTITLE10=When I Found You
TTITLE11=Sometimes I Wonder
TTITLE12=I Found A Job
TTITLE13=Rockin' and Rollin' Rhythm And Bluesin'
TTITLE14=After New Years Eve
TTITLE15=One Day Next Year
TTITLE16=Oh Baby Don't
TTITLE17=500 Miles To Go
TTITLE18=Lonely Lover
TTITLE19=Hurry Home Baby
EXTD=
EXTT0=
EXTT1=
EXTT2=
EXTT3=
EXTT4=
EXTT5=
EXTT6=
EXTT7=
EXTT8=
EXTT9=
EXTT10=
EXTT11=
EXTT12=
EXTT13=
EXTT14=
EXTT15=
EXTT16=
EXTT17=
EXTT18=
EXTT19=
PLAYORDER=
